<svg width="40" height="40" viewBox="0 0 40 40" fill="none" xmlns="http://www.w3.org/2000/svg">
<path d="M18.4924 32.6803L19.1378 33.0623L18.4924 32.6803ZM18.8383 32.0959L18.1929 31.7139L18.8383 32.0959ZM15.8283 32.0959L16.4737 31.7139L16.4737 31.7139L15.8283 32.0959ZM16.1742 32.6803L15.5288 33.0623L16.1742 32.6803ZM7.07264 26.841L7.76555 26.554L7.07264 26.841ZM12.3857 30.1133L12.4097 29.3637H12.4097L12.3857 30.1133ZM9.95902 29.7274L9.67201 30.4203H9.67201L9.95902 29.7274ZM27.594 26.841L28.2869 27.1281L27.594 26.841ZM22.2809 30.1133L22.2569 29.3637L22.2809 30.1133ZM24.7076 29.7274L24.9947 30.4203L24.7076 29.7274ZM25.4533 12.7859L25.8452 12.1464L25.8452 12.1464L25.4533 12.7859ZM27.2141 14.5467L27.8536 14.1548V14.1548L27.2141 14.5467ZM9.21334 12.7859L8.82146 12.1464V12.1464L9.21334 12.7859ZM7.45258 14.5467L6.8131 14.1548H6.8131L7.45258 14.5467ZM14.5552 30.4298L14.1733 31.0753H14.1733L14.5552 30.4298ZM19.1378 33.0623L19.4838 32.4779L18.1929 31.7139L17.847 32.2983L19.1378 33.0623ZM15.1829 32.4779L15.5288 33.0623L16.8196 32.2983L16.4737 31.7139L15.1829 32.4779ZM17.847 32.2983C17.622 32.6784 17.0446 32.6784 16.8196 32.2983L15.5288 33.0623C16.3346 34.4237 18.3321 34.4237 19.1378 33.0623L17.847 32.2983ZM15.7333 12.75H18.9333V11.25H15.7333V12.75ZM27.25 21.0667V22.1334H28.75V21.0667H27.25ZM7.41666 22.1334V21.0667H5.91666V22.1334H7.41666ZM5.91666 22.1334C5.91666 23.3656 5.91626 24.3274 5.96915 25.1026C6.0225 25.8846 6.13258 26.5314 6.37973 27.1281L7.76555 26.554C7.60672 26.1706 7.51381 25.7061 7.46567 25.0005C7.41707 24.2882 7.41666 23.3862 7.41666 22.1334H5.91666ZM12.4097 29.3637C11.3474 29.3297 10.7354 29.2372 10.246 29.0345L9.67201 30.4203C10.424 30.7318 11.2639 30.8278 12.3618 30.8629L12.4097 29.3637ZM6.37973 27.1281C6.99715 28.6186 8.18142 29.8029 9.67201 30.4203L10.246 29.0345C9.12299 28.5693 8.23073 27.6771 7.76555 26.554L6.37973 27.1281ZM27.25 22.1334C27.25 23.3862 27.2496 24.2882 27.201 25.0005C27.1528 25.7061 27.0599 26.1706 26.9011 26.554L28.2869 27.1281C28.5341 26.5314 28.6442 25.8846 28.6975 25.1026C28.7504 24.3274 28.75 23.3656 28.75 22.1334H27.25ZM22.3049 30.8629C23.4028 30.8278 24.2426 30.7318 24.9947 30.4203L24.4206 29.0345C23.9313 29.2372 23.3192 29.3297 22.2569 29.3637L22.3049 30.8629ZM26.9011 26.554C26.4359 27.6771 25.5437 28.5693 24.4206 29.0345L24.9947 30.4203C26.4852 29.8029 27.6695 28.6186 28.2869 27.1281L26.9011 26.554ZM18.9333 12.75C20.6937 12.75 21.9613 12.7508 22.9508 12.8449C23.9291 12.9379 24.5578 13.1168 25.0615 13.4254L25.8452 12.1464C25.0663 11.6691 24.1809 11.4551 23.0928 11.3516C22.0158 11.2492 20.6646 11.25 18.9333 11.25V12.75ZM28.75 21.0667C28.75 19.3354 28.7508 17.9842 28.6484 16.9073C28.5449 15.8191 28.3309 14.9337 27.8536 14.1548L26.5746 14.9386C26.8832 15.4422 27.0621 16.0709 27.1551 17.0492C27.2492 18.0387 27.25 19.3063 27.25 21.0667H28.75ZM25.0614 13.4254C25.6782 13.8033 26.1967 14.3218 26.5746 14.9386L27.8536 14.1548C27.352 13.3363 26.6637 12.6481 25.8452 12.1464L25.0614 13.4254ZM15.7333 11.25C14.002 11.25 12.6509 11.2492 11.5739 11.3516C10.4858 11.4551 9.60036 11.6691 8.82146 12.1464L9.60521 13.4254C10.1088 13.1168 10.7376 12.9379 11.7159 12.8449C12.7054 12.7508 13.973 12.75 15.7333 12.75V11.25ZM7.41666 21.0667C7.41666 19.3063 7.41746 18.0387 7.51154 17.0492C7.60456 16.0709 7.78345 15.4422 8.09206 14.9386L6.8131 14.1548C6.33579 14.9337 6.12173 15.8191 6.01827 16.9073C5.91587 17.9842 5.91666 19.3354 5.91666 21.0667H7.41666ZM8.82146 12.1464C8.00292 12.6481 7.31471 13.3363 6.8131 14.1548L8.09206 14.9386C8.46999 14.3218 8.9885 13.8033 9.60521 13.4254L8.82146 12.1464ZM16.4737 31.7139C16.2036 31.2575 15.9755 30.8707 15.7562 30.5688C15.5281 30.2547 15.2773 29.9855 14.937 29.7843L14.1733 31.0753C14.2746 31.1352 14.3832 31.2308 14.5426 31.4503C14.7109 31.682 14.8986 31.9976 15.1829 32.4779L16.4737 31.7139ZM12.3618 30.8629C12.9512 30.8818 13.3439 30.8951 13.646 30.9319C13.9363 30.9673 14.0766 31.0181 14.1733 31.0753L14.937 29.7843C14.5921 29.5803 14.2237 29.4913 13.8276 29.4429C13.4434 29.3961 12.9722 29.3817 12.4097 29.3637L12.3618 30.8629ZM19.4838 32.4779C19.768 31.9976 19.9557 31.682 20.124 31.4503C20.2834 31.2308 20.392 31.1352 20.4933 31.0753L19.7296 29.7843C19.3894 29.9855 19.1385 30.2547 18.9104 30.5688C18.6911 30.8707 18.463 31.2575 18.1929 31.7139L19.4838 32.4779ZM22.2569 29.3637C21.6944 29.3817 21.2232 29.3961 20.839 29.4429C20.4429 29.4913 20.0745 29.5803 19.7296 29.7843L20.4933 31.0753C20.59 31.0181 20.7303 30.9673 21.0206 30.9319C21.3227 30.8951 21.7154 30.8818 22.3049 30.8629L22.2569 29.3637Z" fill="white"/>
<path d="M32.9527 20.5805L33.6456 20.8675V20.8675L32.9527 20.5805ZM30.2467 23.2865L30.5337 23.9794L30.2467 23.2865ZM30.9458 7.40379L30.5539 8.04327L30.9458 7.40379ZM32.5965 9.05451L33.2359 8.66264V8.66264L32.5965 9.05451ZM15.7208 7.40379L15.3289 6.76432V6.76432L15.7208 7.40379ZM14.0701 9.05451L13.4306 8.66264L13.4306 8.66264L14.0701 9.05451ZM21.8333 7.41699H24.8333V5.91699H21.8333V7.41699ZM32.5833 15.167V16.167H34.0833V15.167H32.5833ZM32.5833 16.167C32.5833 17.3422 32.5829 18.1859 32.5374 18.8518C32.4925 19.5109 32.4059 19.9406 32.2597 20.2935L33.6456 20.8675C33.88 20.3014 33.9838 19.6894 34.0339 18.9539C34.0837 18.2251 34.0833 17.3216 34.0833 16.167H32.5833ZM32.2597 20.2935C31.8284 21.3348 31.001 22.1622 29.9597 22.5936L30.5337 23.9794C31.9426 23.3958 33.062 22.2764 33.6456 20.8675L32.2597 20.2935ZM24.8333 7.41699C26.4845 7.41699 27.6703 7.41778 28.5952 7.50573C29.5089 7.59261 30.0904 7.75922 30.5539 8.04327L31.3376 6.76432C30.5988 6.31156 29.7607 6.10978 28.7372 6.01246C27.7248 5.9162 26.4555 5.91699 24.8333 5.91699V7.41699ZM34.0833 15.167C34.0833 13.5448 34.0841 12.2755 33.9878 11.2631C33.8905 10.2396 33.6887 9.40146 33.2359 8.66264L31.957 9.44638C32.241 9.90991 32.4076 10.4913 32.4945 11.4051C32.5825 12.33 32.5833 13.5158 32.5833 15.167H34.0833ZM30.5539 8.04327C31.1257 8.39371 31.6065 8.87452 31.957 9.44638L33.2359 8.66264C32.7618 7.88894 32.1113 7.23844 31.3376 6.76432L30.5539 8.04327ZM21.8333 5.91699C20.2111 5.91699 18.9418 5.9162 17.9294 6.01246C16.9058 6.10978 16.0677 6.31156 15.3289 6.76432L16.1126 8.04327C16.5762 7.75922 17.1576 7.59261 18.0713 7.50573C18.9963 7.41778 20.182 7.41699 21.8333 7.41699V5.91699ZM15.3289 6.76432C14.5552 7.23844 13.9047 7.88894 13.4306 8.66264L14.7095 9.44638C15.06 8.87452 15.5408 8.39371 16.1126 8.04327L15.3289 6.76432ZM14.1266 12.0393C14.1937 10.7482 14.3626 10.0126 14.7095 9.44638L13.4306 8.66264C12.8814 9.55876 12.6991 10.6068 12.6286 11.9614L14.1266 12.0393ZM28.0249 24.3969C29.0408 24.3631 29.8269 24.2721 30.5337 23.9794L29.9597 22.5936C29.5136 22.7783 28.9531 22.8652 27.9751 22.8977L28.0249 24.3969Z" fill="white"/>
<path d="M14 21.3333C14 22.0697 13.403 22.6667 12.6667 22.6667C11.9303 22.6667 11.3333 22.0697 11.3333 21.3333C11.3333 20.597 11.9303 20 12.6667 20C13.403 20 14 20.597 14 21.3333Z" fill="white"/>
<path d="M18.6667 21.3333C18.6667 22.0697 18.0697 22.6667 17.3333 22.6667C16.597 22.6667 16 22.0697 16 21.3333C16 20.597 16.597 20 17.3333 20C18.0697 20 18.6667 20.597 18.6667 21.3333Z" fill="white"/>
<path d="M23.3333 21.3333C23.3333 22.0697 22.7364 22.6667 22 22.6667C21.2636 22.6667 20.6667 22.0697 20.6667 21.3333C20.6667 20.597 21.2636 20 22 20C22.7364 20 23.3333 20.597 23.3333 21.3333Z" fill="white"/>
</svg>
