<svg width="40" height="40" viewBox="0 0 40 40" fill="none" xmlns="http://www.w3.org/2000/svg">
<g clip-path="url(#clip0_4727_741)">
<path d="M18.7959 29.7162L25.2691 26.4796C30.9239 23.6522 33.7513 22.2385 33.7513 19.9997C33.7513 17.761 30.9239 16.3473 25.2691 13.5199L18.7959 10.2833C14.232 8.00133 11.95 6.86033 10.627 7.21057C9.36846 7.54375 8.38552 8.5267 8.05233 9.78524C7.70209 11.1082 8.84309 13.3902 11.1251 17.9542C11.4915 18.687 11.6747 19.0534 11.7506 19.4369C11.8242 19.8085 11.8242 20.191 11.7506 20.5626C11.6747 20.9461 11.4915 21.3125 11.1251 22.0453C8.84309 26.6093 7.70209 28.8913 8.05233 30.2142C8.38551 31.4728 9.36846 32.4557 10.627 32.7889C11.95 33.1391 14.232 31.9981 18.7959 29.7162Z" stroke="white" stroke-width="1.5"/>
<path d="M26.9165 19.9998L19.0208 19.9561" stroke="white" stroke-width="1.5" stroke-linecap="round"/>
</g>
<defs>
<clipPath id="clip0_4727_741">
<rect width="40" height="40" fill="white"/>
</clipPath>
</defs>
</svg>
