<svg width="24" height="24" viewBox="0 0 24 24" fill="none" xmlns="http://www.w3.org/2000/svg">
<path d="M17 4L15 2H5.5C4.7 2 4 2.7 4 3.5V20.5C4 21.3 4.7 22 5.5 22H18.5C19.3 22 20 21.3 20 20.5V7L17 4Z" fill="#1B80FC"/>
<path d="M15 5.9V2L20 7H16.1C15.5 7 15 6.5 15 5.9Z" fill="#F5F5F5"/>
<path d="M16.4513 14.06C16.0946 14.06 15.7713 13.9833 15.4813 13.83C15.1946 13.6733 14.968 13.4583 14.8013 13.185C14.638 12.9083 14.5563 12.5967 14.5563 12.25C14.5563 11.9033 14.638 11.5933 14.8013 11.32C14.968 11.0433 15.1946 10.8283 15.4813 10.675C15.7713 10.5183 16.0963 10.44 16.4563 10.44C16.7596 10.44 17.033 10.4933 17.2763 10.6C17.523 10.7067 17.7296 10.86 17.8963 11.06L17.3763 11.54C17.1396 11.2667 16.8463 11.13 16.4963 11.13C16.2796 11.13 16.0863 11.1783 15.9163 11.275C15.7463 11.3683 15.613 11.5 15.5163 11.67C15.423 11.84 15.3763 12.0333 15.3763 12.25C15.3763 12.4667 15.423 12.66 15.5163 12.83C15.613 13 15.7463 13.1333 15.9163 13.23C16.0863 13.3233 16.2796 13.37 16.4963 13.37C16.8463 13.37 17.1396 13.2317 17.3763 12.955L17.8963 13.435C17.7296 13.6383 17.523 13.7933 17.2763 13.9C17.0296 14.0067 16.7546 14.06 16.4513 14.06Z" fill="white"/>
<path d="M12.2326 14.06C11.8692 14.06 11.5409 13.9817 11.2476 13.825C10.9576 13.6683 10.7292 13.4533 10.5626 13.18C10.3992 12.9033 10.3176 12.5933 10.3176 12.25C10.3176 11.9067 10.3992 11.5983 10.5626 11.325C10.7292 11.0483 10.9576 10.8317 11.2476 10.675C11.5409 10.5183 11.8692 10.44 12.2326 10.44C12.5959 10.44 12.9226 10.5183 13.2126 10.675C13.5026 10.8317 13.7309 11.0483 13.8976 11.325C14.0642 11.5983 14.1476 11.9067 14.1476 12.25C14.1476 12.5933 14.0642 12.9033 13.8976 13.18C13.7309 13.4533 13.5026 13.6683 13.2126 13.825C12.9226 13.9817 12.5959 14.06 12.2326 14.06ZM12.2326 13.37C12.4392 13.37 12.6259 13.3233 12.7926 13.23C12.9592 13.1333 13.0892 13 13.1826 12.83C13.2792 12.66 13.3276 12.4667 13.3276 12.25C13.3276 12.0333 13.2792 11.84 13.1826 11.67C13.0892 11.5 12.9592 11.3683 12.7926 11.275C12.6259 11.1783 12.4392 11.13 12.2326 11.13C12.0259 11.13 11.8392 11.1783 11.6726 11.275C11.5059 11.3683 11.3742 11.5 11.2776 11.67C11.1842 11.84 11.1376 12.0333 11.1376 12.25C11.1376 12.4667 11.1842 12.66 11.2776 12.83C11.3742 13 11.5059 13.1333 11.6726 13.23C11.8392 13.3233 12.0259 13.37 12.2326 13.37Z" fill="white"/>
<path d="M6.3867 10.5H7.9767C8.3567 10.5 8.6917 10.5733 8.9817 10.72C9.27503 10.8633 9.5017 11.0667 9.6617 11.33C9.82503 11.5933 9.9067 11.9 9.9067 12.25C9.9067 12.6 9.82503 12.9067 9.6617 13.17C9.5017 13.4333 9.27503 13.6383 8.9817 13.785C8.6917 13.9283 8.3567 14 7.9767 14H6.3867V10.5ZM7.9367 13.335C8.2867 13.335 8.56503 13.2383 8.7717 13.045C8.9817 12.8483 9.0867 12.5833 9.0867 12.25C9.0867 11.9167 8.9817 11.6533 8.7717 11.46C8.56503 11.2633 8.2867 11.165 7.9367 11.165H7.1967V13.335H7.9367Z" fill="white"/>
</svg>
