<svg width="24" height="24" viewBox="0 0 24 24" fill="none" xmlns="http://www.w3.org/2000/svg">
<path d="M5.01991 14.6365C4.33997 13.7532 4 13.3115 4 12C4 10.6885 4.33997 10.2468 5.01991 9.36347C6.37757 7.59965 8.65449 5.60001 12 5.60001C15.3455 5.60001 17.6224 7.59965 18.9801 9.36347C19.66 10.2468 20 10.6885 20 12C20 13.3115 19.66 13.7532 18.9801 14.6365C17.6224 16.4004 15.3455 18.4 12 18.4C8.65449 18.4 6.37757 16.4004 5.01991 14.6365Z" stroke="#1A1B1B" stroke-width="1.5"/>
<path d="M14.4 12C14.4 13.3255 13.3255 14.4 12 14.4C10.6745 14.4 9.6 13.3255 9.6 12C9.6 10.6745 10.6745 9.60001 12 9.60001C13.3255 9.60001 14.4 10.6745 14.4 12Z" stroke="#1A1B1B" stroke-width="1.5"/>
</svg>
