<svg width="34" height="34" viewBox="0 0 34 34" fill="none" xmlns="http://www.w3.org/2000/svg">
<circle cx="12" cy="22" r="1.6" transform="rotate(180 12 22)" stroke="#1A1B1B" stroke-width="1.5"/>
<circle cx="18.4" cy="23.6" r="1.6" transform="rotate(180 18.4 23.6)" stroke="#1A1B1B" stroke-width="1.5"/>
<circle cx="1.6" cy="1.6" r="1.6" transform="matrix(-1 8.74228e-08 8.74228e-08 1 7.2 18.8)" stroke="#1A1B1B" stroke-width="1.5"/>
<path d="M12 18.8L12 16.4" stroke="#1A1B1B" stroke-width="1.5" stroke-linecap="round"/>
<path d="M18.4 20.4L18.4 16.4" stroke="#1A1B1B" stroke-width="1.5" stroke-linecap="round"/>
<path d="M5.6 23.6L5.6 27.6" stroke="#1A1B1B" stroke-width="1.5" stroke-linecap="round"/>
<path d="M12 27.6L12 25.2" stroke="#1A1B1B" stroke-width="1.5" stroke-linecap="round"/>
<path d="M18.4 27.6L18.4 26.8" stroke="#1A1B1B" stroke-width="1.5" stroke-linecap="round"/>
<path d="M5.6 16.4L5.6 17.2" stroke="#1A1B1B" stroke-width="1.5" stroke-linecap="round"/>
<rect x="18" width="16" height="16" rx="8" fill="#FF428A"/>
<path d="M25.8812 13.084C25.4812 13.084 25.1172 13.024 24.7892 12.904C24.4692 12.784 24.1932 12.62 23.9612 12.412C23.7372 12.196 23.5612 11.948 23.4332 11.668C23.3132 11.388 23.2532 11.084 23.2532 10.756H24.3692C24.3692 11.14 24.5012 11.46 24.7652 11.716C25.0372 11.972 25.4092 12.1 25.8812 12.1C26.3532 12.1 26.7212 11.972 26.9852 11.716C27.2572 11.452 27.3932 11.124 27.3932 10.732C27.3932 10.244 27.2492 9.864 26.9612 9.592C26.6732 9.312 26.2332 9.172 25.6412 9.172H25.0052V8.188H25.6412C26.2012 8.188 26.6132 8.064 26.8772 7.816C27.1412 7.568 27.2732 7.208 27.2732 6.736C27.2732 6.376 27.1492 6.08 26.9012 5.848C26.6612 5.616 26.3212 5.5 25.8812 5.5C25.4412 5.5 25.0972 5.616 24.8492 5.848C24.6092 6.072 24.4892 6.36 24.4892 6.712H23.3732C23.3732 6.408 23.4292 6.124 23.5412 5.86C23.6612 5.588 23.8292 5.356 24.0452 5.164C24.2612 4.964 24.5252 4.808 24.8372 4.696C25.1492 4.576 25.4972 4.516 25.8812 4.516C26.2652 4.516 26.6092 4.576 26.9132 4.696C27.2252 4.808 27.4892 4.964 27.7052 5.164C27.9292 5.364 28.0972 5.6 28.2092 5.872C28.3292 6.136 28.3892 6.424 28.3892 6.736C28.3892 7.216 28.2612 7.62 28.0052 7.948C27.7492 8.276 27.4412 8.508 27.0812 8.644C27.5212 8.772 27.8692 9.02 28.1252 9.388C28.3812 9.756 28.5092 10.208 28.5092 10.744C28.5092 11.072 28.4452 11.38 28.3172 11.668C28.1972 11.948 28.0212 12.196 27.7892 12.412C27.5652 12.62 27.2892 12.784 26.9612 12.904C26.6412 13.024 26.2812 13.084 25.8812 13.084Z" fill="white"/>
</svg>
