<svg width="32" height="32" viewBox="0 0 32 32" fill="none" xmlns="http://www.w3.org/2000/svg">
<path d="M16.0039 4.33398C10.9941 4.33398 9.52886 4.33915 9.24405 4.36279C8.21594 4.44827 7.57618 4.61019 6.8792 4.9573C6.34207 5.22409 5.91846 5.53335 5.50038 5.96686C4.73899 6.75745 4.27754 7.73009 4.11049 8.88625C4.02928 9.44752 4.00565 9.562 4.00085 12.4289C3.99901 13.3846 4.00085 14.6423 4.00085 16.3293C4.00085 21.3365 4.00639 22.8006 4.03038 23.0849C4.11345 24.0856 4.27034 24.7152 4.60258 25.4039C5.23754 26.7222 6.45024 27.7118 7.87889 28.081C8.37357 28.2084 8.91993 28.2786 9.62133 28.3118C9.91851 28.3248 12.9475 28.334 15.9783 28.334C19.0091 28.334 22.0399 28.3303 22.3297 28.3155C23.1419 28.2773 23.6135 28.214 24.1349 28.0792C25.5728 27.7081 26.7633 26.7332 27.4112 25.3965C27.737 24.7244 27.9022 24.0709 27.977 23.1224C27.9932 22.9156 28 19.6187 28 16.3261C28 13.0331 27.9926 9.7422 27.9764 9.53541C27.9007 8.57164 27.7355 7.92358 27.3992 7.2386C27.1233 6.67788 26.8169 6.25913 26.372 5.83097C25.5781 5.07251 24.6073 4.61093 23.4503 4.44402C22.8897 4.36297 22.7781 4.33897 19.9097 4.33398H16.0039Z" fill="url(#paint0_radial_4205_4734)"/>
<path d="M16.0039 4.33398C10.9941 4.33398 9.52886 4.33915 9.24405 4.36279C8.21594 4.44827 7.57618 4.61019 6.8792 4.9573C6.34207 5.22409 5.91846 5.53335 5.50038 5.96686C4.73899 6.75745 4.27754 7.73009 4.11049 8.88625C4.02928 9.44752 4.00565 9.562 4.00085 12.4289C3.99901 13.3846 4.00085 14.6423 4.00085 16.3293C4.00085 21.3365 4.00639 22.8006 4.03038 23.0849C4.11345 24.0856 4.27034 24.7152 4.60258 25.4039C5.23754 26.7222 6.45024 27.7118 7.87889 28.081C8.37357 28.2084 8.91993 28.2786 9.62133 28.3118C9.91851 28.3248 12.9475 28.334 15.9783 28.334C19.0091 28.334 22.0399 28.3303 22.3297 28.3155C23.1419 28.2773 23.6135 28.214 24.1349 28.0792C25.5728 27.7081 26.7633 26.7332 27.4112 25.3965C27.737 24.7244 27.9022 24.0709 27.977 23.1224C27.9932 22.9156 28 19.6187 28 16.3261C28 13.0331 27.9926 9.7422 27.9764 9.53541C27.9007 8.57164 27.7355 7.92358 27.3992 7.2386C27.1233 6.67788 26.8169 6.25913 26.372 5.83097C25.5781 5.07251 24.6073 4.61093 23.4503 4.44402C22.8897 4.36297 22.7781 4.33897 19.9097 4.33398H16.0039Z" fill="url(#paint1_radial_4205_4734)"/>
<path d="M15.9984 7.47272C13.5922 7.47272 13.2903 7.48324 12.3452 7.52626C11.402 7.56946 10.7582 7.71883 10.1949 7.93799C9.61214 8.16435 9.11783 8.46714 8.62537 8.95992C8.13254 9.45252 7.82983 9.94696 7.60279 10.5297C7.38314 11.0933 7.23363 11.7375 7.19118 12.6806C7.14891 13.6259 7.13783 13.9282 7.13783 16.335C7.13783 18.7419 7.14854 19.043 7.19136 19.9883C7.23474 20.9318 7.38406 21.5758 7.60298 22.1392C7.82946 22.7221 8.13217 23.2166 8.62481 23.7092C9.11709 24.2021 9.6114 24.5057 10.1938 24.732C10.7575 24.9512 11.4015 25.1005 12.3445 25.1438C13.2895 25.1868 13.5913 25.1973 15.9973 25.1973C18.4037 25.1973 18.7048 25.1868 19.6498 25.1438C20.593 25.1005 21.2376 24.9512 21.8013 24.732C22.3838 24.5057 22.8774 24.2021 23.3697 23.7092C23.8625 23.2166 24.1652 22.7221 24.3923 22.1394C24.6101 21.5758 24.7596 20.9316 24.8039 19.9885C24.8463 19.0432 24.8574 18.7419 24.8574 16.335C24.8574 13.9282 24.8463 13.6261 24.8039 12.6808C24.7596 11.7373 24.6101 11.0933 24.3923 10.5298C24.1652 9.94696 23.8625 9.45252 23.3697 8.95992C22.8768 8.46696 22.384 8.16416 21.8007 7.93799C21.2359 7.71883 20.5917 7.56946 19.6485 7.52626C18.7035 7.48324 18.4026 7.47272 15.9957 7.47272H15.9984ZM15.2036 9.06978C15.4395 9.06941 15.7027 9.06978 15.9984 9.06978C18.364 9.06978 18.6444 9.07827 19.5786 9.12073C20.4424 9.16024 20.9112 9.30463 21.2236 9.42593C21.637 9.58656 21.9318 9.77857 22.2417 10.0888C22.5518 10.3989 22.7438 10.6943 22.9047 11.1079C23.026 11.4199 23.1705 11.8889 23.2098 12.753C23.2523 13.6872 23.2615 13.9679 23.2615 16.333C23.2615 18.6981 23.2523 18.9787 23.2098 19.913C23.1703 20.777 23.026 21.246 22.9047 21.558C22.7441 21.9716 22.5518 22.2661 22.2417 22.5761C21.9316 22.8863 21.6372 23.0783 21.2236 23.2389C20.9116 23.3608 20.4424 23.5048 19.5786 23.5443C18.6446 23.5868 18.364 23.596 15.9984 23.596C13.6327 23.596 13.3523 23.5868 12.4183 23.5443C11.5545 23.5044 11.0856 23.36 10.7731 23.2387C10.3597 23.0781 10.0644 22.8861 9.75426 22.5759C9.44417 22.2657 9.2522 21.9711 9.09125 21.5573C8.96998 21.2453 8.82545 20.7763 8.78614 19.9122C8.74368 18.978 8.73519 18.6974 8.73519 16.3308C8.73519 13.9642 8.74368 13.685 8.78614 12.7508C8.82564 11.8867 8.96998 11.4177 9.09125 11.1053C9.25184 10.6918 9.44417 10.3963 9.75426 10.0862C10.0644 9.77599 10.3597 9.58397 10.7731 9.42297C11.0855 9.30112 11.5545 9.15711 12.4183 9.11741C13.2356 9.08048 13.5524 9.06941 15.2036 9.06756V9.06978ZM20.7278 10.5413C20.1408 10.5413 19.6646 11.0171 19.6646 11.6044C19.6646 12.1915 20.1408 12.6679 20.7278 12.6679C21.3147 12.6679 21.791 12.1915 21.791 11.6044C21.791 11.0173 21.3147 10.5409 20.7278 10.5409V10.5413ZM15.9984 11.7839C13.4857 11.7839 11.4485 13.8216 11.4485 16.335C11.4485 18.8484 13.4857 20.8852 15.9984 20.8852C18.5111 20.8852 20.5476 18.8484 20.5476 16.335C20.5476 13.8216 18.5111 11.7839 15.9984 11.7839ZM15.9984 13.3809C17.6294 13.3809 18.9517 14.7034 18.9517 16.335C18.9517 17.9664 17.6294 19.2891 15.9984 19.2891C14.3673 19.2891 13.0452 17.9664 13.0452 16.335C13.0452 14.7034 14.3673 13.3809 15.9984 13.3809Z" fill="white"/>
<defs>
<radialGradient id="paint0_radial_4205_4734" cx="0" cy="0" r="1" gradientUnits="userSpaceOnUse" gradientTransform="translate(10.3751 30.1825) rotate(-90) scale(23.7858 22.1226)">
<stop stop-color="#FFDD55"/>
<stop offset="0.1" stop-color="#FFDD55"/>
<stop offset="0.5" stop-color="#FF543E"/>
<stop offset="1" stop-color="#C837AB"/>
</radialGradient>
<radialGradient id="paint1_radial_4205_4734" cx="0" cy="0" r="1" gradientUnits="userSpaceOnUse" gradientTransform="translate(-0.0200964 6.0629) rotate(78.6806) scale(10.6323 43.827)">
<stop stop-color="#3771C8"/>
<stop offset="0.128" stop-color="#3771C8"/>
<stop offset="1" stop-color="#6600FF" stop-opacity="0"/>
</radialGradient>
</defs>
</svg>
