<svg width="24" height="24" viewBox="0 0 24 24" fill="none" xmlns="http://www.w3.org/2000/svg">
<path d="M17 4L15 2H5.5C4.7 2 4 2.7 4 3.5V20.5C4 21.3 4.7 22 5.5 22H18.5C19.3 22 20 21.3 20 20.5V7L17 4Z" fill="#FF2428"/>
<path d="M15 5.9V2L20 7H16.1C15.5 7 15 6.5 15 5.9Z" fill="#F5F5F5"/>
<path d="M15.5204 11.15V12.075H17.1404V12.725H15.5204V14H14.7104V10.5H17.3554V11.15H15.5204Z" fill="white"/>
<path d="M10.5595 10.5H12.1495C12.5295 10.5 12.8645 10.5733 13.1545 10.72C13.4479 10.8633 13.6745 11.0667 13.8345 11.33C13.9979 11.5933 14.0795 11.9 14.0795 12.25C14.0795 12.6 13.9979 12.9067 13.8345 13.17C13.6745 13.4333 13.4479 13.6383 13.1545 13.785C12.8645 13.9283 12.5295 14 12.1495 14H10.5595V10.5ZM12.1095 13.335C12.4595 13.335 12.7379 13.2383 12.9445 13.045C13.1545 12.8483 13.2595 12.5833 13.2595 12.25C13.2595 11.9167 13.1545 11.6533 12.9445 11.46C12.7379 11.2633 12.4595 11.165 12.1095 11.165H11.3695V13.335H12.1095Z" fill="white"/>
<path d="M8.44125 10.5C8.75125 10.5 9.01958 10.5517 9.24625 10.655C9.47625 10.7583 9.65291 10.905 9.77625 11.095C9.89958 11.285 9.96125 11.51 9.96125 11.77C9.96125 12.0267 9.89958 12.2517 9.77625 12.445C9.65291 12.635 9.47625 12.7817 9.24625 12.885C9.01958 12.985 8.75125 13.035 8.44125 13.035H7.73625V14H6.92625V10.5H8.44125ZM8.39625 12.375C8.63958 12.375 8.82458 12.3233 8.95125 12.22C9.07791 12.1133 9.14125 11.9633 9.14125 11.77C9.14125 11.5733 9.07791 11.4233 8.95125 11.32C8.82458 11.2133 8.63958 11.16 8.39625 11.16H7.73625V12.375H8.39625Z" fill="white"/>
</svg>
