<svg width="24" height="24" viewBox="0 0 24 24" fill="none" xmlns="http://www.w3.org/2000/svg">
<path d="M19.4871 7.47768V20.7118C19.4871 21.4244 18.9115 22 18.1989 22H6.28818C5.57557 22 5 21.4244 5 20.7118V3.28818C5 2.57557 5.57557 2 6.28818 2H14.0094L19.4871 7.47768Z" fill="#23A566"/>
<path d="M15.4111 11.9569H9.07595C8.84886 11.9569 8.66483 12.1409 8.66483 12.368V17.8848C8.66483 18.1119 8.84886 18.296 9.07595 18.296H15.415C15.6421 18.296 15.8261 18.1119 15.8261 17.8848V12.3719C15.8222 12.1448 15.6382 11.9569 15.4111 11.9569ZM9.48707 14.6037H11.8324V15.6491H9.48707V14.6037ZM12.6547 14.6037H15V15.6491H12.6547V14.6037ZM15 13.7815H12.6547V12.783H15V13.7815ZM11.8324 12.783V13.7815H9.48707V12.783H11.8324ZM9.48707 16.4753H11.8324V17.4737H9.48707V16.4753ZM12.6547 17.4737V16.4753H15V17.4737H12.6547Z" fill="white"/>
<path d="M14.7455 7.27798L19.4871 11.119V7.5129L16.7972 5.95065L14.7455 7.27798Z" fill="black" fill-opacity="0.0980392"/>
<path d="M19.4871 7.47768H15.2976C14.585 7.47768 14.0094 6.90211 14.0094 6.18951V2L19.4871 7.47768Z" fill="#8ED1B1"/>
</svg>
