<svg width="24" height="24" viewBox="0 0 24 24" fill="none" xmlns="http://www.w3.org/2000/svg">
<path d="M20 7.47793V20.7116C20 21.4232 19.3624 22 18.5769 22H5.42313C4.63703 22 4 21.4232 4 20.7116V3.2884C3.99996 2.57672 4.63698 2 5.42313 2H13.9492L20 7.47793Z" fill="#518EF8"/>
<path d="M7.90875 12.0411H16.0906V12.8642H7.90875V12.0411ZM7.90875 13.8794H16.0906V14.7024H7.90875V13.8794ZM7.90875 15.7176H16.0906V16.5407H7.90875V15.7176ZM7.90875 17.5558H13.7274V18.3789H7.90875V17.5558Z" fill="white"/>
<path d="M14.7748 7.35892L20 9.30778V7.47794L17.0375 6.68603L14.7748 7.35892Z" fill="#3A5BBC"/>
<path d="M20 7.47793H15.3724C14.5862 7.47793 13.9492 6.90121 13.9492 6.18953V2L20 7.47793Z" fill="#ACD1FC"/>
</svg>
