<svg width="24" height="24" viewBox="0 0 24 24" fill="none" xmlns="http://www.w3.org/2000/svg">
<path d="M17.6002 8C17.5905 6.25998 17.5133 5.31765 16.8986 4.70294C16.1957 4 15.0643 4 12.8016 4L12.0016 4C9.73882 4 8.60745 4 7.90451 4.70294C7.20156 5.40589 7.20156 6.53726 7.20156 8.8L7.20156 15.2C7.20156 17.4627 7.20156 18.5941 7.90451 19.2971C8.60745 20 9.73882 20 12.0016 20L12.8016 20C15.0643 20 16.1957 20 16.8986 19.2971C17.5133 18.6823 17.5905 17.74 17.6002 16" stroke="#1A1B1B" stroke-width="1.5" stroke-linecap="round"/>
<path d="M12 12L22.4 12M22.4 12L19.6 9.60002M22.4 12L19.6 14.4" stroke="#1A1B1B" stroke-width="1.5" stroke-linecap="round" stroke-linejoin="round"/>
</svg>
