<svg width="58" height="31" viewBox="0 0 58 31" fill="none" xmlns="http://www.w3.org/2000/svg">
<path d="M52.7395 0.953735H45.3959L44.092 8.31323H53.7586L58 0.953735H52.7395Z" fill="#B2D234"/>
<path d="M7.34368 8.31323L6.05479 15.6877L4.75092 23.0472H12.1096L13.3985 15.6877L14.7023 8.31323H7.34368Z" fill="#50B748"/>
<path d="M22.046 8.31323L20.7571 15.6877L19.4532 23.0472H26.8119L28.1008 15.6877L29.3897 8.31323H22.046Z" fill="#7FC241"/>
<path d="M42.8031 15.6877L44.092 8.31323H36.7483L35.4445 15.6877L35.0398 18.0007C34.5452 20.7943 36.4186 23.0472 39.1912 23.0472H51.1659L55.4072 15.6877H42.8031Z" fill="#99CA3C"/>
<path d="M7.34367 8.31323H0L4.24134 0.953735H8.64754L7.34367 8.31323Z" fill="#50B748"/>
<path d="M14.7023 8.31323H7.34369L8.64756 0.953735H15.9912L14.7023 8.31323Z" fill="#2CA449"/>
<path d="M22.046 8.31323H14.7023L15.9912 0.953735H23.3499L22.046 8.31323Z" fill="#7FC241"/>
<path d="M29.3897 8.31323H22.046L23.3499 0.953735H30.6936L29.3897 8.31323Z" fill="#50B748"/>
<path d="M36.7483 8.31323H29.3896L30.6935 0.953735H38.0372L36.7483 8.31323Z" fill="#99CA3C"/>
<path d="M44.092 8.31323H36.7483L37.1529 6.00025C37.6475 3.22166 40.3002 0.953735 43.0878 0.953735H45.3958L44.092 8.31323Z" fill="#7FC241"/>
<path d="M21.3116 27.0123H20.2925L20.3225 26.802H22.6005L22.5705 27.0123H21.5364L21.1018 29.9111H20.877L21.3116 27.0123ZM23.0051 27.6431H23.215L23.1101 28.289C23.3349 27.8834 23.7395 27.5831 24.1741 27.6131L24.1292 27.8534H24.1142C23.6196 27.8534 23.125 28.2439 23.0051 28.9799L22.8703 29.9111H22.6604L23.0051 27.6431ZM26.1824 29.055L26.2274 28.7996C26.0475 28.7546 25.8227 28.6945 25.508 28.6945C25.0584 28.6945 24.7736 28.9198 24.7137 29.2352C24.6687 29.5656 24.9385 29.7609 25.2682 29.7609C25.7028 29.7609 26.1225 29.4755 26.1824 29.055ZM24.5038 29.2352C24.5638 28.7696 24.9984 28.4992 25.5529 28.4992C25.8527 28.4992 26.0475 28.5443 26.2573 28.6044L26.2723 28.4992C26.3323 28.0487 26.1075 27.8083 25.6579 27.8083C25.4031 27.8083 25.1783 27.8834 24.9535 27.9886L24.9085 27.8083C25.1633 27.6882 25.4031 27.6131 25.7028 27.6131C26.0026 27.6131 26.2124 27.6882 26.3473 27.8534C26.4672 28.0036 26.5121 28.2139 26.4672 28.4992L26.2573 29.9111H26.0625L26.1075 29.5356C25.9276 29.7458 25.6279 29.9561 25.2232 29.9561C24.8186 29.9561 24.4289 29.7158 24.5038 29.2352ZM27.6661 27.6431H27.8759L27.816 28.0637C27.9958 27.7933 28.2806 27.5831 28.6703 27.5831C29.2098 27.5831 29.4646 27.9736 29.3896 28.5293L29.1798 29.9111H28.97L29.1798 28.5593C29.2398 28.0937 29.0449 27.7933 28.6103 27.7933C28.1907 27.7933 27.801 28.1237 27.7411 28.6044L27.5462 29.9111H27.3364L27.6661 27.6431ZM30.109 29.6257L30.2589 29.4455C30.4687 29.6407 30.7085 29.7458 30.9933 29.7458C31.278 29.7458 31.5328 29.5806 31.5778 29.3103C31.6077 29.0399 31.3529 28.9498 31.0682 28.8597C30.7385 28.7546 30.3638 28.6344 30.4237 28.2289C30.4837 27.8534 30.8134 27.5981 31.233 27.5981C31.4878 27.5981 31.7726 27.6882 31.9524 27.8534L31.8175 28.0336C31.6377 27.8834 31.4279 27.8083 31.1881 27.8083C30.9033 27.8083 30.6785 27.9736 30.6336 28.1988C30.6036 28.4542 30.8734 28.5593 31.1731 28.6494C31.5028 28.7546 31.8475 28.8897 31.7876 29.2953C31.7276 29.7008 31.3529 29.9561 30.9483 29.9561C30.6336 29.9561 30.3039 29.8209 30.109 29.6257ZM32.8367 29.3253L33.0615 27.8384H32.7467L32.7767 27.6431H33.0914L33.2113 26.9222H33.4212L33.3013 27.6431H34.0656L34.0356 27.8384H33.2713L33.0615 29.3103C33.0015 29.6257 33.1664 29.7458 33.4212 29.7458C33.5261 29.7458 33.616 29.7158 33.7509 29.6707L33.7209 29.866C33.601 29.9261 33.4961 29.9561 33.3612 29.9561C33.0165 29.9561 32.7767 29.7609 32.8367 29.3253ZM36.4336 28.6644C36.4635 28.2139 36.2837 27.7933 35.7891 27.7933C35.3545 27.7933 34.9648 28.1688 34.8599 28.6644H36.4336ZM34.6201 28.7696C34.725 28.1087 35.2346 27.5831 35.8191 27.5831C36.4336 27.5831 36.7333 28.1087 36.6284 28.7696C36.6284 28.8146 36.6284 28.8297 36.6134 28.8597H34.8299C34.785 29.4304 35.1147 29.7609 35.5343 29.7609C35.879 29.7609 36.1338 29.5956 36.3287 29.4004L36.4635 29.5356C36.1938 29.7909 35.909 29.9561 35.5044 29.9561C34.9349 29.9561 34.5152 29.4905 34.6201 28.7696ZM37.9173 26.6669H38.1271L37.6325 29.9111H37.4227L37.9173 26.6669ZM40.615 28.6644C40.6449 28.2139 40.4651 27.7933 39.9705 27.7933C39.5359 27.7933 39.1462 28.1688 39.0413 28.6644H40.615ZM38.8015 28.7696C38.9064 28.1087 39.416 27.5831 40.0005 27.5831C40.615 27.5831 40.9147 28.1087 40.8098 28.7696C40.8098 28.8146 40.8098 28.8297 40.7948 28.8597H39.0113C38.9664 29.4304 39.2961 29.7609 39.7157 29.7609C40.0604 29.7609 40.3152 29.5956 40.5101 29.4004L40.6449 29.5356C40.3752 29.7909 40.0904 29.9561 39.6858 29.9561C39.1163 29.9561 38.6966 29.4905 38.8015 28.7696ZM41.6041 28.7696C41.694 28.1237 42.2635 27.5831 42.878 27.5831C43.2827 27.5831 43.5225 27.7783 43.6723 28.0036L43.5075 28.1688C43.3576 27.9585 43.1628 27.7933 42.848 27.7933C42.3685 27.7933 41.9039 28.2289 41.8289 28.7696C41.739 29.3253 42.0687 29.7609 42.5633 29.7609C42.878 29.7609 43.1328 29.5806 43.3426 29.3704L43.4775 29.5206C43.2077 29.7759 42.923 29.9561 42.5183 29.9561C41.9039 29.9561 41.4992 29.4304 41.6041 28.7696ZM46.2801 28.7696C46.355 28.2289 46.0253 27.7933 45.5307 27.7933C45.0511 27.7933 44.5865 28.2289 44.5116 28.7696C44.4217 29.3253 44.7514 29.7609 45.246 29.7609C45.7256 29.7609 46.1902 29.3103 46.2801 28.7696ZM44.2868 28.7696C44.3767 28.1388 44.9312 27.5831 45.5757 27.5831C46.2051 27.5831 46.5948 28.1237 46.5049 28.7696C46.4 29.4154 45.8455 29.9561 45.201 29.9561C44.5716 29.9561 44.1819 29.4154 44.2868 28.7696ZM47.6289 27.6431H47.8387L47.7788 28.0487C47.9586 27.8083 48.1834 27.5831 48.5731 27.5831C48.9478 27.5831 49.1426 27.8083 49.2325 28.0787C49.3974 27.8234 49.6672 27.5831 50.0718 27.5831C50.5964 27.5831 50.8511 27.9585 50.7612 28.5293L50.5514 29.9111H50.3566L50.5514 28.5593C50.6263 28.0787 50.4315 27.7933 50.0268 27.7933C49.6672 27.7933 49.3075 28.0787 49.2325 28.5894L49.0377 29.9111H48.8279L49.0227 28.5443C49.0976 28.0787 48.9028 27.7933 48.5132 27.7933C48.1235 27.7933 47.7638 28.1388 47.7038 28.6044L47.509 29.9111H47.2992L47.6289 27.6431Z" fill="white" stroke="#7FC241" stroke-width="0.375005"/>
</svg>
