<svg width="24" height="24" viewBox="0 0 24 24" fill="none" xmlns="http://www.w3.org/2000/svg">
<path d="M12 20C16.4183 20 20 16.4183 20 12C20 7.58172 16.4183 4 12 4C7.58172 4 4 7.58172 4 12C4 13.2797 4.30049 14.4893 4.83477 15.562C4.97675 15.847 5.02401 16.1729 4.94169 16.4805L4.46521 18.2613C4.25836 19.0344 4.96561 19.7416 5.73868 19.5348L7.51951 19.0583C7.82715 18.976 8.15297 19.0233 8.43802 19.1652C9.51069 19.6995 10.7203 20 12 20Z" stroke="#1A1B1B" stroke-width="1.5"/>
<path d="M8.8 10.8H15.2" stroke="#1A1B1B" stroke-width="1.5" stroke-linecap="round"/>
<path d="M8.8 13.6H13.2" stroke="#1A1B1B" stroke-width="1.5" stroke-linecap="round"/>
</svg>
