<svg width="24" height="24" viewBox="0 0 24 24" fill="none" xmlns="http://www.w3.org/2000/svg">
<path d="M5.6 10.4C5.6 7.38301 5.6 5.87452 6.53726 4.93726C7.47452 4 8.98301 4 12 4C15.017 4 16.5255 4 17.4627 4.93726C18.4 5.87452 18.4 7.38301 18.4 10.4V13.6C18.4 16.617 18.4 18.1255 17.4627 19.0627C16.5255 20 15.017 20 12 20C8.98301 20 7.47452 20 6.53726 19.0627C5.6 18.1255 5.6 16.617 5.6 13.6V10.4Z" stroke="#1A1B1B" stroke-width="1.5"/>
<path d="M14.4 17.6H9.6" stroke="#1A1B1B" stroke-width="1.5" stroke-linecap="round"/>
<path d="M15.7986 4.30215L15.7313 4.40309C15.1264 5.31036 14.824 5.76401 14.3823 6.0385C14.2944 6.09308 14.2032 6.14192 14.109 6.18473C13.6356 6.40001 13.0904 6.40001 12 6.40001C10.9096 6.40001 10.3644 6.40001 9.89097 6.18473C9.79683 6.14192 9.70556 6.09308 9.61772 6.03849C9.176 5.76401 8.87357 5.31037 8.26872 4.40309L8.20143 4.30215" stroke="#1A1B1B" stroke-width="1.5" stroke-linecap="round"/>
</svg>
