<svg width="24" height="24" viewBox="0 0 24 24" fill="none" xmlns="http://www.w3.org/2000/svg">
<g clip-path="url(#clip0_4191_4173)">
<path d="M11.2776 17.8298L15.1614 15.8879C18.5543 14.1915 20.2508 13.3432 20.2508 12C20.2508 10.6567 18.5543 9.80852 15.1614 8.11208L11.2776 6.17014C8.53917 4.80094 7.16997 4.11634 6.3762 4.32649C5.62107 4.5264 5.03131 5.11616 4.8314 5.87129C4.62125 6.66506 5.30585 8.03426 6.67505 10.7727C6.8949 11.2123 7.00482 11.4322 7.05037 11.6623C7.09452 11.8853 7.09453 12.1147 7.05037 12.3377C7.00482 12.5678 6.89489 12.7876 6.67505 13.2273C5.30585 15.9657 4.62125 17.3349 4.8314 18.1287C5.03131 18.8838 5.62107 19.4736 6.3762 19.6735C7.16997 19.8836 8.53918 19.199 11.2776 17.8298Z" stroke="#1A1B1B" stroke-width="1.5"/>
<path d="M16.1499 11.9996L11.4125 11.9734" stroke="#1A1B1B" stroke-width="1.5" stroke-linecap="round"/>
</g>
<defs>
<clipPath id="clip0_4191_4173">
<rect width="24" height="24" fill="white"/>
</clipPath>
</defs>
</svg>
