<svg width="25" height="24" viewBox="0 0 25 24" fill="none" xmlns="http://www.w3.org/2000/svg">
<path d="M4.66663 12.0016C4.66663 8.98457 4.66663 7.47608 5.60388 6.53882C6.54114 5.60156 8.04964 5.60156 11.0666 5.60156H14.2666C17.2836 5.60156 18.7921 5.60156 19.7294 6.53882C20.6666 7.47608 20.6666 8.98457 20.6666 12.0016V13.6016C20.6666 16.6186 20.6666 18.127 19.7294 19.0643C18.7921 20.0016 17.2836 20.0016 14.2666 20.0016H11.0666C8.04964 20.0016 6.54114 20.0016 5.60388 19.0643C4.66663 18.127 4.66663 16.6186 4.66663 13.6016V12.0016Z" stroke="#1B80FC" stroke-width="1.5"/>
<path d="M8.66663 5.59844V4.39844" stroke="#1B80FC" stroke-width="1.5" stroke-linecap="round"/>
<path d="M16.6666 5.59844V4.39844" stroke="#1B80FC" stroke-width="1.5" stroke-linecap="round"/>
<path d="M5.06662 9.60156H20.2666" stroke="#1B80FC" stroke-width="1.5" stroke-linecap="round"/>
<path d="M17.4666 16C17.4666 16.4418 17.1085 16.8 16.6666 16.8C16.2248 16.8 15.8666 16.4418 15.8666 16C15.8666 15.5582 16.2248 15.2 16.6666 15.2C17.1085 15.2 17.4666 15.5582 17.4666 16Z" fill="#1B80FC"/>
<path d="M17.4666 12.8C17.4666 13.2418 17.1085 13.6 16.6666 13.6C16.2248 13.6 15.8666 13.2418 15.8666 12.8C15.8666 12.3582 16.2248 12 16.6666 12C17.1085 12 17.4666 12.3582 17.4666 12.8Z" fill="#1B80FC"/>
<path d="M13.4666 16C13.4666 16.4418 13.1085 16.8 12.6666 16.8C12.2248 16.8 11.8666 16.4418 11.8666 16C11.8666 15.5582 12.2248 15.2 12.6666 15.2C13.1085 15.2 13.4666 15.5582 13.4666 16Z" fill="#1B80FC"/>
<path d="M13.4666 12.8C13.4666 13.2418 13.1085 13.6 12.6666 13.6C12.2248 13.6 11.8666 13.2418 11.8666 12.8C11.8666 12.3582 12.2248 12 12.6666 12C13.1085 12 13.4666 12.3582 13.4666 12.8Z" fill="#1B80FC"/>
<path d="M9.46664 16C9.46664 16.4418 9.10847 16.8 8.66664 16.8C8.22481 16.8 7.86664 16.4418 7.86664 16C7.86664 15.5582 8.22481 15.2 8.66664 15.2C9.10847 15.2 9.46664 15.5582 9.46664 16Z" fill="#1B80FC"/>
<path d="M9.46664 12.8C9.46664 13.2418 9.10847 13.6 8.66664 13.6C8.22481 13.6 7.86664 13.2418 7.86664 12.8C7.86664 12.3582 8.22481 12 8.66664 12C9.10847 12 9.46664 12.3582 9.46664 12.8Z" fill="#1B80FC"/>
</svg>
