<svg width="25" height="24" viewBox="0 0 25 24" fill="none" xmlns="http://www.w3.org/2000/svg">
<path d="M9.46663 6.4C9.46663 7.72548 8.39211 8.8 7.06663 8.8C5.74114 8.8 4.66663 7.72548 4.66663 6.4C4.66663 5.07452 5.74114 4 7.06663 4C8.39211 4 9.46663 5.07452 9.46663 6.4Z" stroke="#1B80FC" stroke-width="1.5"/>
<path d="M20.6666 6.4C20.6666 7.72548 19.5921 8.8 18.2666 8.8C16.9412 8.8 15.8666 7.72548 15.8666 6.4C15.8666 5.07452 16.9412 4 18.2666 4C19.5921 4 20.6666 5.07452 20.6666 6.4Z" stroke="#1B80FC" stroke-width="1.5"/>
<path d="M9.46663 17.5992C9.46663 18.9247 8.39211 19.9992 7.06663 19.9992C5.74114 19.9992 4.66663 18.9247 4.66663 17.5992C4.66663 16.2737 5.74114 15.1992 7.06663 15.1992C8.39211 15.1992 9.46663 16.2737 9.46663 17.5992Z" stroke="#1B80FC" stroke-width="1.5"/>
<path d="M20.6666 17.5992C20.6666 18.9247 19.5921 19.9992 18.2666 19.9992C16.9412 19.9992 15.8666 18.9247 15.8666 17.5992C15.8666 16.2737 16.9412 15.1992 18.2666 15.1992C19.5921 15.1992 20.6666 16.2737 20.6666 17.5992Z" stroke="#1B80FC" stroke-width="1.5"/>
<path d="M9.46661 17.6016H15.8666" stroke="#1B80FC" stroke-width="1.5" stroke-linecap="round"/>
<path d="M9.46661 6.39844H15.8666" stroke="#1B80FC" stroke-width="1.5" stroke-linecap="round"/>
<path d="M18.2666 15.1992L18.2666 8.79922" stroke="#1B80FC" stroke-width="1.5" stroke-linecap="round"/>
<path d="M7.06662 15.1992L7.06662 8.79922" stroke="#1B80FC" stroke-width="1.5" stroke-linecap="round"/>
</svg>
