<svg width="25" height="24" viewBox="0 0 25 24" fill="none" xmlns="http://www.w3.org/2000/svg">
<path d="M11.7621 19.6074L12.4075 19.9894L11.7621 19.6074ZM11.9696 19.2567L11.3242 18.8747L11.3242 18.8747L11.9696 19.2567ZM10.1636 19.2567L10.809 18.8747L10.809 18.8747L10.1636 19.2567ZM10.3711 19.6074L9.72573 19.9894L9.72573 19.9894L10.3711 19.6074ZM4.91021 16.1038L5.60312 15.8168L4.91021 16.1038ZM8.09807 18.0672L8.12205 17.3176H8.12205L8.09807 18.0672ZM6.64204 17.8357L6.35503 18.5286H6.35503L6.64204 17.8357ZM17.223 16.1038L17.916 16.3909V16.3909L17.223 16.1038ZM14.0352 18.0672L14.0112 17.3176L14.0352 18.0672ZM15.4912 17.8357L15.7782 18.5286H15.7782L15.4912 17.8357ZM15.9386 7.67077L16.3305 7.03129V7.03129L15.9386 7.67077ZM16.9951 8.72723L17.6346 8.33536L17.6346 8.33536L16.9951 8.72723ZM6.19463 7.67077L5.80276 7.03129L6.19463 7.67077ZM5.13818 8.72723L4.4987 8.33536H4.4987L5.13818 8.72723ZM9.39973 18.2571L9.01788 18.9026L9.39973 18.2571ZM12.4075 19.9894L12.615 19.6388L11.3242 18.8747L11.1167 19.2254L12.4075 19.9894ZM9.51818 19.6388L9.72573 19.9894L11.0166 19.2254L10.809 18.8747L9.51818 19.6388ZM11.1167 19.2254C11.1107 19.2354 11.1058 19.2389 11.101 19.2416C11.094 19.2453 11.0821 19.2492 11.0666 19.2492C11.0511 19.2492 11.0392 19.2453 11.0323 19.2416C11.0274 19.2389 11.0225 19.2354 11.0166 19.2254L9.72573 19.9894C10.3254 21.0025 11.8079 21.0025 12.4075 19.9894L11.1167 19.2254ZM10.1066 7.94922H12.0266V6.44922H10.1066V7.94922ZM16.7166 12.6392V13.2792H18.2166V12.6392H16.7166ZM5.41663 13.2792V12.6392H3.91663V13.2792H5.41663ZM3.91663 13.2792C3.91663 14.0145 3.91622 14.6035 3.94881 15.0812C3.98187 15.5657 4.05135 15.9902 4.2173 16.3909L5.60312 15.8168C5.52549 15.6294 5.47318 15.3872 5.44533 14.9791C5.41703 14.5643 5.41663 14.035 5.41663 13.2792H3.91663ZM8.12205 17.3176C7.4918 17.2974 7.17013 17.2426 6.92905 17.1428L6.35503 18.5286C6.85878 18.7373 7.40822 18.7955 8.07409 18.8168L8.12205 17.3176ZM4.2173 16.3909C4.6182 17.3587 5.38716 18.1277 6.35503 18.5286L6.92905 17.1428C6.32873 16.8941 5.85178 16.4172 5.60312 15.8168L4.2173 16.3909ZM16.7166 13.2792C16.7166 14.035 16.7162 14.5643 16.6879 14.9791C16.6601 15.3872 16.6078 15.6294 16.5301 15.8168L17.916 16.3909C18.0819 15.9902 18.1514 15.5657 18.1844 15.0812C18.217 14.6035 18.2166 14.0145 18.2166 13.2792H16.7166ZM14.0591 18.8168C14.725 18.7955 15.2745 18.7373 15.7782 18.5286L15.2042 17.1428C14.9631 17.2426 14.6414 17.2974 14.0112 17.3176L14.0591 18.8168ZM16.5301 15.8168C16.2815 16.4172 15.8045 16.8941 15.2042 17.1428L15.7782 18.5286C16.7461 18.1277 17.515 17.3587 17.916 16.3909L16.5301 15.8168ZM12.0266 7.94922C13.0886 7.94922 13.8325 7.95001 14.4087 8.0048C14.9737 8.05852 15.2996 8.15883 15.5467 8.31025L16.3305 7.03129C15.8081 6.71116 15.2255 6.57569 14.5507 6.51153C13.887 6.44843 13.0596 6.44922 12.0266 6.44922V7.94922ZM18.2166 12.6392C18.2166 11.6063 18.2174 10.7789 18.1543 10.1152C18.0902 9.44035 17.9547 8.85776 17.6346 8.33536L16.3556 9.1191C16.507 9.36621 16.6073 9.69212 16.661 10.2572C16.7158 10.8334 16.7166 11.5772 16.7166 12.6392H18.2166ZM15.5467 8.31025C15.8764 8.51227 16.1536 8.78944 16.3556 9.1191L17.6346 8.33536C17.3089 7.80386 16.862 7.35699 16.3305 7.03129L15.5467 8.31025ZM10.1066 6.44922C9.07365 6.44922 8.24625 6.44843 7.58258 6.51153C6.90774 6.57569 6.32515 6.71116 5.80276 7.03129L6.58651 8.31025C6.83361 8.15883 7.15952 8.05852 7.72456 8.0048C8.30076 7.95001 9.04461 7.94922 10.1066 7.94922V6.44922ZM5.41663 12.6392C5.41663 11.5772 5.41742 10.8334 5.4722 10.2572C5.52593 9.69212 5.62623 9.36621 5.77766 9.1191L4.4987 8.33536C4.17857 8.85776 4.0431 9.44035 3.97894 10.1152C3.91583 10.7789 3.91663 11.6063 3.91663 12.6392H5.41663ZM5.80276 7.03129C5.27126 7.35699 4.8244 7.80386 4.4987 8.33536L5.77766 9.1191C5.97968 8.78944 6.25684 8.51227 6.58651 8.31025L5.80276 7.03129ZM10.809 18.8747C10.6498 18.6057 10.5048 18.3593 10.3631 18.1642C10.2124 17.9568 10.0335 17.7606 9.78157 17.6116L9.01788 18.9026C9.03087 18.9103 9.06756 18.933 9.14945 19.0457C9.24026 19.1707 9.34478 19.3458 9.51818 19.6388L10.809 18.8747ZM8.07409 18.8168C8.43315 18.8283 8.65309 18.8361 8.81792 18.8562C8.97094 18.8748 9.00952 18.8977 9.01788 18.9026L9.78157 17.6116C9.525 17.4598 9.25833 17.3988 8.99954 17.3672C8.75256 17.3371 8.45414 17.3282 8.12205 17.3176L8.07409 18.8168ZM12.615 19.6388C12.7884 19.3458 12.893 19.1707 12.9838 19.0457C13.0657 18.933 13.1024 18.9103 13.1153 18.9026L12.3517 17.6116C12.0997 17.7606 11.9208 17.9568 11.7701 18.1642C11.6284 18.3593 11.4834 18.6057 11.3242 18.8747L12.615 19.6388ZM14.0112 17.3176C13.6791 17.3282 13.3807 17.3371 13.1337 17.3672C12.8749 17.3988 12.6082 17.4598 12.3517 17.6116L13.1153 18.9026C13.1237 18.8977 13.1623 18.8748 13.3153 18.8562C13.4801 18.8361 13.7001 18.8283 14.0591 18.8168L14.0112 17.3176Z" fill="#1B80FC"/>
<path d="M20.4382 12.3481L21.1311 12.6351V12.6351L20.4382 12.3481ZM18.8146 13.9717L19.1016 14.6646L19.1016 14.6646L18.8146 13.9717ZM19.2341 4.44208L18.8422 5.08156V5.08156L19.2341 4.44208ZM20.2245 5.43251L20.864 5.04064V5.04064L20.2245 5.43251ZM10.0991 4.44208L9.7072 3.8026H9.7072L10.0991 4.44208ZM9.10865 5.43251L8.46917 5.04064H8.46917L9.10865 5.43251ZM13.7666 4.75H15.5666V3.25H13.7666V4.75ZM19.9166 9.10002V9.70002H21.4166V9.10002H19.9166ZM19.9166 9.70002C19.9166 10.4092 19.9162 10.9035 19.8898 11.2904C19.8638 11.6706 19.8153 11.892 19.7453 12.0611L21.1311 12.6351C21.2895 12.2528 21.3551 11.8491 21.3863 11.3926C21.417 10.9427 21.4166 10.3887 21.4166 9.70002H19.9166ZM19.7453 12.0611C19.5169 12.6124 19.0789 13.0504 18.5276 13.2788L19.1016 14.6646C20.0205 14.284 20.7505 13.554 21.1311 12.6351L19.7453 12.0611ZM15.5666 4.75C16.5631 4.75 17.2579 4.75079 17.7953 4.80189C18.3216 4.85193 18.6191 4.94487 18.8422 5.08156L19.6259 3.8026C19.1276 3.49721 18.5734 3.36911 17.9373 3.30863C17.3124 3.24921 16.5341 3.25 15.5666 3.25V4.75ZM21.4166 9.10002C21.4166 8.13251 21.4174 7.35421 21.3579 6.72928C21.2975 6.09319 21.1694 5.53899 20.864 5.04064L19.585 5.82438C19.7217 6.04744 19.8146 6.34497 19.8647 6.87126C19.9158 7.40872 19.9166 8.10347 19.9166 9.10002H21.4166ZM18.8422 5.08156C19.1449 5.26709 19.3995 5.52163 19.585 5.82438L20.864 5.04064C20.5548 4.53605 20.1305 4.11181 19.6259 3.8026L18.8422 5.08156ZM13.7666 3.25C12.7991 3.25 12.0208 3.24921 11.3958 3.30863C10.7597 3.36911 10.2056 3.49721 9.7072 3.8026L10.491 5.08156C10.714 4.94487 11.0115 4.85193 11.5378 4.80189C12.0753 4.75079 12.77 4.75 13.7666 4.75V3.25ZM9.7072 3.8026C9.20262 4.11181 8.77838 4.53605 8.46917 5.04064L9.74813 5.82438C9.93366 5.52163 10.1882 5.26709 10.491 5.08156L9.7072 3.8026ZM9.44216 7.23896C9.4818 6.477 9.58037 6.09814 9.74813 5.82438L8.46917 5.04064C8.09925 5.64429 7.98713 6.33559 7.94419 7.16104L9.44216 7.23896ZM17.4915 14.9378C18.1086 14.9173 18.6254 14.8618 19.1016 14.6646L18.5276 13.2788C18.3121 13.368 18.021 13.4194 17.4417 13.4386L17.4915 14.9378Z" fill="#1B80FC"/>
<path d="M9.06661 12.8C9.06661 13.2418 8.70844 13.6 8.26661 13.6C7.82479 13.6 7.46661 13.2418 7.46661 12.8C7.46661 12.3582 7.82479 12 8.26661 12C8.70844 12 9.06661 12.3582 9.06661 12.8Z" fill="#1B80FC"/>
<path d="M11.8666 12.8C11.8666 13.2418 11.5084 13.6 11.0666 13.6C10.6248 13.6 10.2666 13.2418 10.2666 12.8C10.2666 12.3582 10.6248 12 11.0666 12C11.5084 12 11.8666 12.3582 11.8666 12.8Z" fill="#1B80FC"/>
<path d="M14.6666 12.8C14.6666 13.2418 14.3084 13.6 13.8666 13.6C13.4248 13.6 13.0666 13.2418 13.0666 12.8C13.0666 12.3582 13.4248 12 13.8666 12C14.3084 12 14.6666 12.3582 14.6666 12.8Z" fill="#1B80FC"/>
</svg>
