<svg width="32" height="32" viewBox="0 0 32 32" fill="none" xmlns="http://www.w3.org/2000/svg">
<path d="M16 28.334C22.6274 28.334 28 22.9614 28 16.334C28 9.70657 22.6274 4.33398 16 4.33398C9.37258 4.33398 4 9.70657 4 16.334C4 22.9614 9.37258 28.334 16 28.334Z" fill="url(#paint0_linear_4205_4731)"/>
<path d="M8.9942 16.2299L17.0751 12.9005C17.8728 12.5536 20.578 11.4438 20.578 11.4438C20.578 11.4438 21.8266 10.9583 21.7225 12.1375C21.6878 12.623 21.4104 14.3224 21.1329 16.1606L20.2659 21.6057C20.2659 21.6057 20.1965 22.4034 19.6069 22.5421C19.0173 22.6808 18.0462 22.0565 17.8728 21.9178C17.7341 21.8138 15.2717 20.2531 14.3699 19.4901C14.1271 19.282 13.8497 18.8658 14.4046 18.3802C15.6532 17.2357 17.1445 15.8138 18.0462 14.912C18.4624 14.4958 18.8786 13.5247 17.1445 14.7039L12.2543 17.9987C12.2543 17.9987 11.6994 18.3456 10.6589 18.0334C9.61848 17.7213 8.4046 17.3051 8.4046 17.3051C8.4046 17.3051 7.57223 16.7849 8.9942 16.2299Z" fill="white"/>
<defs>
<linearGradient id="paint0_linear_4205_4731" x1="20.0009" y1="8.33491" x2="14.0009" y2="22.334" gradientUnits="userSpaceOnUse">
<stop stop-color="#37AEE2"/>
<stop offset="1" stop-color="#1E96C8"/>
</linearGradient>
</defs>
</svg>
