<svg width="24" height="24" viewBox="0 0 24 24" fill="none" xmlns="http://www.w3.org/2000/svg">
<path d="M17 4L15 2H5.5C4.7 2 4 2.7 4 3.5V20.5C4 21.3 4.7 22 5.5 22H18.5C19.3 22 20 21.3 20 20.5V7L17 4Z" fill="#FF428A"/>
<path d="M15 5.9V2L20 7H16.1C15.5 7 15 6.5 15 5.9Z" fill="#F5F5F5"/>
<path d="M14.7933 11.16H13.6733V10.5H16.7233V11.16H15.6033V14H14.7933V11.16Z" fill="white"/>
<path d="M12.8353 14L11.9903 12.785L11.1603 14H10.2303L11.5253 12.22L10.2953 10.5H11.2153L12.0203 11.635L12.8103 10.5H13.6853L12.4653 12.19L13.7703 14H12.8353Z" fill="white"/>
<path d="M8.39588 11.16H7.27588V10.5H10.3259V11.16H9.20588V14H8.39588V11.16Z" fill="white"/>
</svg>
