<svg width="40" height="40" viewBox="0 0 40 40" fill="none" xmlns="http://www.w3.org/2000/svg">
<path d="M9.33331 14.667C9.33331 10.8958 9.33331 9.01014 10.5049 7.83856C11.6765 6.66699 13.5621 6.66699 17.3333 6.66699H22.6666C26.4379 6.66699 28.3235 6.66699 29.4951 7.83856C30.6666 9.01014 30.6666 10.8958 30.6666 14.667V25.3337C30.6666 29.1049 30.6666 30.9905 29.4951 32.1621C28.3235 33.3337 26.4379 33.3337 22.6666 33.3337H17.3333C13.5621 33.3337 11.6765 33.3337 10.5049 32.1621C9.33331 30.9905 9.33331 29.1049 9.33331 25.3337V14.667Z" stroke="white" stroke-width="1.5"/>
<path d="M30.5303 25.333H14.5303C13.2904 25.333 12.6704 25.333 12.1617 25.4693C10.7814 25.8392 9.70318 26.9174 9.33331 28.2977" stroke="white" stroke-width="1.5"/>
<path d="M14.6667 13.333H25.3334" stroke="white" stroke-width="1.5" stroke-linecap="round"/>
<path d="M14.6667 18H21.3334" stroke="white" stroke-width="1.5" stroke-linecap="round"/>
<path d="M30 29.333H14.6667" stroke="white" stroke-width="1.5" stroke-linecap="round"/>
</svg>
