<svg width="40" height="40" viewBox="0 0 40 40" fill="none" xmlns="http://www.w3.org/2000/svg">
<path d="M9.12604 14.563C7.62465 13.0616 7.62465 10.6274 9.12604 9.12604C10.6274 7.62465 13.0616 7.62465 14.563 9.12604L30.874 25.437C32.3753 26.9384 32.3753 29.3726 30.874 30.874C29.3726 32.3753 26.9384 32.3753 25.437 30.874L9.12604 14.563Z" stroke="white" stroke-width="1.5"/>
<path d="M12 17.333L17.3333 11.9997" stroke="white" stroke-width="1.5" stroke-linecap="round"/>
<path d="M25.4667 7.07658C25.6813 6.53046 26.4513 6.53046 26.6659 7.07658L27.2398 8.53696C27.3053 8.70369 27.4368 8.83567 27.6029 8.90143L29.0579 9.47739C29.602 9.69278 29.602 10.4657 29.0579 10.681L27.6029 11.257C27.4368 11.3228 27.3053 11.4548 27.2398 11.6215L26.6659 13.0819C26.4513 13.628 25.6813 13.628 25.4667 13.0819L24.8929 11.6215C24.8273 11.4548 24.6958 11.3228 24.5297 11.257L23.0747 10.681C22.5306 10.4657 22.5306 9.69278 23.0747 9.47739L24.5297 8.90143C24.6958 8.83567 24.8273 8.70369 24.8929 8.53696L25.4667 7.07658Z" stroke="white"/>
<path d="M30.6229 16.1723C30.8375 15.6262 31.6075 15.6262 31.8221 16.1723L32.0313 16.7047C32.0969 16.8715 32.2284 17.0035 32.3945 17.0692L32.925 17.2792C33.4691 17.4946 33.4691 18.2675 32.925 18.4829L32.3945 18.6929C32.2284 18.7586 32.0969 18.8906 32.0313 19.0573L31.8221 19.5898C31.6075 20.1359 30.8375 20.1359 30.6229 19.5898L30.4137 19.0573C30.3482 18.8906 30.2167 18.7586 30.0505 18.6929L29.52 18.4829C28.9759 18.2675 28.9759 17.4946 29.52 17.2792L30.0505 17.0692C30.2167 17.0035 30.3482 16.8715 30.4137 16.7047L30.6229 16.1723Z" stroke="white"/>
<path d="M10.8443 24.4096C11.0589 23.8635 11.8289 23.8635 12.0435 24.4096L12.2527 24.942C12.3182 25.1088 12.4497 25.2408 12.6158 25.3065L13.1463 25.5165C13.6904 25.7319 13.6904 26.5048 13.1463 26.7202L12.6158 26.9302C12.4497 26.9959 12.3182 27.1279 12.2527 27.2946L12.0435 27.8271C11.8289 28.3732 11.0589 28.3732 10.8443 27.8271L10.635 27.2946C10.5695 27.1279 10.438 26.9959 10.2719 26.9302L9.74142 26.7202C9.19732 26.5048 9.19732 25.7319 9.74142 25.5165L10.2719 25.3065C10.438 25.2408 10.5695 25.1088 10.635 24.942L10.8443 24.4096Z" stroke="white"/>
</svg>
