<svg width="32" height="32" viewBox="0 0 32 32" fill="none" xmlns="http://www.w3.org/2000/svg">
<path d="M3.99902 28.334L5.69443 22.1715C4.64703 20.3637 4.09686 18.3129 4.09939 16.226C4.10215 9.66865 9.46238 4.33398 16.0493 4.33398C19.2457 4.3356 22.2459 5.57395 24.5023 7.82187C26.7587 10.0698 28.0002 13.0577 27.999 16.2355C27.9961 22.7924 22.6351 28.128 16.0491 28.128H16.0439C14.0442 28.1272 12.0791 27.6277 10.3337 26.6803L3.99902 28.334Z" fill="white"/>
<path d="M16.0529 6.34292C10.5743 6.34292 6.11883 10.7768 6.11688 16.2268C6.11418 18.0878 6.64059 19.9115 7.63526 21.4872L7.87157 21.8612L6.86803 25.5085L10.6272 24.5272L10.9902 24.7413C12.5147 25.6421 14.2628 26.1184 16.0454 26.1194H16.0491C21.5235 26.1194 25.979 21.685 25.9811 16.2347C25.9852 14.9356 25.7305 13.6487 25.2316 12.4483C24.7327 11.2479 23.9996 10.158 23.0747 9.24163C22.155 8.32022 21.0608 7.58959 19.8555 7.09203C18.6502 6.59446 17.3577 6.33985 16.0529 6.34292Z" fill="url(#paint0_linear_4205_4743)"/>
<path fill-rule="evenodd" clip-rule="evenodd" d="M13.0626 11.2543C12.8388 10.7594 12.6033 10.7493 12.3907 10.7408L11.8183 10.7338C11.6192 10.7338 11.2957 10.8082 11.0222 11.1057C10.7487 11.4032 9.97708 12.1222 9.97708 13.5847C9.97708 15.0471 11.047 16.4603 11.1961 16.6588C11.3452 16.8574 13.2617 19.9541 16.2967 21.1456C18.8188 22.1357 19.332 21.9388 19.8796 21.8893C20.4273 21.8399 21.6462 21.1703 21.8948 20.4762C22.1435 19.7821 22.1436 19.1874 22.0691 19.0631C21.9945 18.9387 21.7954 18.8648 21.4966 18.7161C21.1978 18.5673 19.73 17.8483 19.4564 17.7491C19.1827 17.6498 18.9838 17.6005 18.7845 17.898C18.5852 18.1955 18.0137 18.8647 17.8394 19.0631C17.6651 19.2615 17.4912 19.2864 17.1924 19.1378C16.8935 18.9892 15.9321 18.6752 14.7913 17.6625C13.9037 16.8747 13.3046 15.9016 13.1301 15.6043C12.9557 15.3069 13.1116 15.1459 13.2614 14.9978C13.3954 14.8646 13.5599 14.6507 13.7095 14.4772C13.859 14.3037 13.9082 14.1797 14.0076 13.9816C14.107 13.7835 14.0575 13.6096 13.9828 13.461C13.9081 13.3124 13.328 11.8422 13.0626 11.2543Z" fill="white"/>
<defs>
<linearGradient id="paint0_linear_4205_4743" x1="15.8468" y1="7.5297" x2="15.9466" y2="24.4299" gradientUnits="userSpaceOnUse">
<stop stop-color="#57D163"/>
<stop offset="1" stop-color="#23B33A"/>
</linearGradient>
</defs>
</svg>
