<svg width="24" height="24" viewBox="0 0 24 24" fill="none" xmlns="http://www.w3.org/2000/svg">
<path d="M17 4L15 2H5.5C4.7 2 4 2.7 4 3.5V20.5C4 21.3 4.7 22 5.5 22H18.5C19.3 22 20 21.3 20 20.5V7L17 4Z" fill="#1ECD92"/>
<path d="M15 5.9V2L20 7H16.1C15.5 7 15 6.5 15 5.9Z" fill="#F5F5F5"/>
<path d="M15.2183 14.06C14.9416 14.06 14.6733 14.0233 14.4133 13.95C14.1566 13.8733 13.95 13.775 13.7933 13.655L14.0683 13.045C14.2183 13.155 14.3966 13.2433 14.6033 13.31C14.81 13.3767 15.0166 13.41 15.2233 13.41C15.4533 13.41 15.6233 13.3767 15.7333 13.31C15.8433 13.24 15.8983 13.1483 15.8983 13.035C15.8983 12.9517 15.865 12.8833 15.7983 12.83C15.735 12.7733 15.6516 12.7283 15.5483 12.695C15.4483 12.6617 15.3116 12.625 15.1383 12.585C14.8716 12.5217 14.6533 12.4583 14.4833 12.395C14.3133 12.3317 14.1666 12.23 14.0433 12.09C13.9233 11.95 13.8633 11.7633 13.8633 11.53C13.8633 11.3267 13.9183 11.1433 14.0283 10.98C14.1383 10.8133 14.3033 10.6817 14.5233 10.585C14.7466 10.4883 15.0183 10.44 15.3383 10.44C15.5616 10.44 15.78 10.4667 15.9933 10.52C16.2066 10.5733 16.3933 10.65 16.5533 10.75L16.3033 11.365C15.98 11.1817 15.6566 11.09 15.3333 11.09C15.1066 11.09 14.9383 11.1267 14.8283 11.2C14.7216 11.2733 14.6683 11.37 14.6683 11.49C14.6683 11.61 14.73 11.7 14.8533 11.76C14.98 11.8167 15.1716 11.8733 15.4283 11.93C15.695 11.9933 15.9133 12.0567 16.0833 12.12C16.2533 12.1833 16.3983 12.2833 16.5183 12.42C16.6416 12.5567 16.7033 12.7417 16.7033 12.975C16.7033 13.175 16.6466 13.3583 16.5333 13.525C16.4233 13.6883 16.2566 13.8183 16.0333 13.915C15.81 14.0117 15.5383 14.06 15.2183 14.06Z" fill="white"/>
<path d="M11.0503 10.5H11.8603V13.34H13.6153V14H11.0503V10.5Z" fill="white"/>
<path d="M9.77823 14L8.93323 12.785L8.10323 14H7.17323L8.46823 12.22L7.23823 10.5H8.15823L8.96323 11.635L9.75323 10.5H10.6282L9.40823 12.19L10.7132 14H9.77823Z" fill="white"/>
</svg>
