<svg width="24" height="24" viewBox="0 0 24 24" fill="none" xmlns="http://www.w3.org/2000/svg">
<path d="M17 4L15 2H5.5C4.7 2 4 2.7 4 3.5V20.5C4 21.3 4.7 22 5.5 22H18.5C19.3 22 20 21.3 20 20.5V7L17 4Z" fill="#EFE413"/>
<path d="M15 5.9V2L20 7H16.1C15.5 7 15 6.5 15 5.9Z" fill="#F5F5F5"/>
<path d="M17.6578 14L16.8128 12.785L15.9828 14H15.0528L16.3478 12.22L15.1178 10.5H16.0378L16.8428 11.635L17.6328 10.5H18.5078L17.2878 12.19L18.5928 14H17.6578Z" fill="#1A1B1B"/>
<path d="M13.4529 14.06C13.1763 14.06 12.9079 14.0233 12.6479 13.95C12.3913 13.8733 12.1846 13.775 12.0279 13.655L12.3029 13.045C12.4529 13.155 12.6313 13.2433 12.8379 13.31C13.0446 13.3767 13.2513 13.41 13.4579 13.41C13.6879 13.41 13.8579 13.3767 13.9679 13.31C14.0779 13.24 14.1329 13.1483 14.1329 13.035C14.1329 12.9517 14.0996 12.8833 14.0329 12.83C13.9696 12.7733 13.8863 12.7283 13.7829 12.695C13.6829 12.6617 13.5463 12.625 13.3729 12.585C13.1063 12.5217 12.8879 12.4583 12.7179 12.395C12.5479 12.3317 12.4013 12.23 12.2779 12.09C12.1579 11.95 12.0979 11.7633 12.0979 11.53C12.0979 11.3267 12.1529 11.1433 12.2629 10.98C12.3729 10.8133 12.5379 10.6817 12.7579 10.585C12.9813 10.4883 13.2529 10.44 13.5729 10.44C13.7963 10.44 14.0146 10.4667 14.2279 10.52C14.4413 10.5733 14.6279 10.65 14.7879 10.75L14.5379 11.365C14.2146 11.1817 13.8913 11.09 13.5679 11.09C13.3413 11.09 13.1729 11.1267 13.0629 11.2C12.9563 11.2733 12.9029 11.37 12.9029 11.49C12.9029 11.61 12.9646 11.7 13.0879 11.76C13.2146 11.8167 13.4063 11.8733 13.6629 11.93C13.9296 11.9933 14.1479 12.0567 14.3179 12.12C14.4879 12.1833 14.6329 12.2833 14.7529 12.42C14.8763 12.5567 14.9379 12.7417 14.9379 12.975C14.9379 13.175 14.8813 13.3583 14.7679 13.525C14.6579 13.6883 14.4913 13.8183 14.2679 13.915C14.0446 14.0117 13.7729 14.06 13.4529 14.06Z" fill="#1A1B1B"/>
<path d="M9.28488 10.5H10.0949V13.34H11.8499V14H9.28488V10.5Z" fill="#1A1B1B"/>
<path d="M8.01285 14L7.16785 12.785L6.33785 14H5.40785L6.70285 12.22L5.47285 10.5H6.39285L7.19785 11.635L7.98785 10.5H8.86285L7.64285 12.19L8.94785 14H8.01285Z" fill="#1A1B1B"/>
</svg>
